<svg xmlns="http://www.w3.org/2000/svg" viewBox="0 0 600 600">
<rect width="600" height="600" fill="#FFFFFF"/>

  <clipPath id="zoom"><circle cx="300" cy="270" r="200"/></clipPath>
  <circle cx="300" cy="270" r="200" fill="#FDF1EA"/>
  <g clip-path="url(#zoom)"><g transform="translate(-90,-120) scale(1.35)">
    <g transform="rotate(-18 300 300)">
      <rect x="180" y="200" width="150" height="180" rx="34" fill="#E8734A"/>
      <rect x="196" y="216" width="118" height="148" rx="24" fill="#F9B384"/>
      <rect x="212" y="232" width="86" height="116" rx="16" fill="#FDF1EA"/>
      <rect x="330" y="266" width="140" height="48" rx="24" fill="#3D3129"/>
      <rect x="440" y="272" width="36" height="36" rx="18" fill="#8C7D6F"/>
      <path d="M226,250 q30,-14 58,0" stroke="#B8AFA3" stroke-width="5" fill="none" stroke-linecap="round"/>
      <path d="M226,290 q30,-14 58,0" stroke="#B8AFA3" stroke-width="5" fill="none" stroke-linecap="round"/>
      <path d="M226,330 q30,-14 58,0" stroke="#B8AFA3" stroke-width="5" fill="none" stroke-linecap="round"/>
    </g></g></g>
  <circle cx="300" cy="270" r="200" fill="none" stroke="#E8734A" stroke-width="7"/>
  <rect x="120" y="500" width="360" height="66" rx="18" fill="#EEF7F2"/>
  <text x="300" y="528" text-anchor="middle" font-family="Arial" font-size="20" font-weight="bold" fill="#3D3129">No refills needed</text>
  <text x="300" y="552" text-anchor="middle" font-family="Arial" font-size="16" fill="#8C7D6F">One-click empty</text>
</svg>