<svg xmlns="http://www.w3.org/2000/svg" viewBox="0 0 600 600">
<rect width="600" height="600" fill="#FFFFFF"/>

  <clipPath id="zoom"><circle cx="300" cy="270" r="200"/></clipPath>
  <circle cx="300" cy="270" r="200" fill="#FDF1EA"/>
  <g clip-path="url(#zoom)"><g transform="translate(-90,-120) scale(1.35)">
    <g>
      <circle cx="300" cy="300" r="150" fill="#F2C94C" opacity=".14"/>
      <circle cx="300" cy="300" r="105" fill="#F2C94C" opacity=".2"/>
      <line x1="428" y1="300" x2="458" y2="300" stroke="#F2C94C" stroke-width="7" stroke-linecap="round"/><line x1="390.5096679918781" y1="390.5096679918781" x2="411.7228714274745" y2="411.7228714274745" stroke="#F2C94C" stroke-width="7" stroke-linecap="round"/><line x1="300" y1="428" x2="300" y2="458" stroke="#F2C94C" stroke-width="7" stroke-linecap="round"/><line x1="209.49033200812192" y1="390.5096679918781" x2="188.2771285725255" y2="411.7228714274745" stroke="#F2C94C" stroke-width="7" stroke-linecap="round"/><line x1="172" y1="300" x2="142" y2="300" stroke="#F2C94C" stroke-width="7" stroke-linecap="round"/><line x1="209.4903320081219" y1="209.49033200812192" x2="188.27712857252547" y2="188.2771285725255" stroke="#F2C94C" stroke-width="7" stroke-linecap="round"/><line x1="300" y1="172" x2="299.99999999999994" y2="142" stroke="#F2C94C" stroke-width="7" stroke-linecap="round"/><line x1="390.5096679918781" y1="209.4903320081219" x2="411.7228714274745" y2="188.27712857252547" stroke="#F2C94C" stroke-width="7" stroke-linecap="round"/>
      <rect x="248" y="244" width="104" height="120" rx="34" fill="#3D3129"/>
      <circle cx="300" cy="292" r="34" fill="#F2C94C"/>
      <circle cx="300" cy="292" r="20" fill="#FBE59B"/>
      <rect x="272" y="352" width="56" height="16" rx="8" fill="#8C7D6F"/>
      <path d="M258,238 q42,-26 84,0" stroke="#E8734A" stroke-width="12" fill="none" stroke-linecap="round"/>
    </g></g></g>
  <circle cx="300" cy="270" r="200" fill="none" stroke="#E8734A" stroke-width="7"/>
  <rect x="120" y="500" width="360" height="66" rx="18" fill="#EEF7F2"/>
  <text x="300" y="528" text-anchor="middle" font-family="Arial" font-size="20" font-weight="bold" fill="#3D3129">3 light modes</text>
  <text x="300" y="552" text-anchor="middle" font-family="Arial" font-size="16" fill="#8C7D6F">IPX5 · USB-C</text>
</svg>