<svg xmlns="http://www.w3.org/2000/svg" viewBox="0 0 600 600">
<rect width="600" height="600" fill="#FFFFFF"/>

  <circle cx="300" cy="300" r="252" fill="#EEF7F2"/>
  <path d="M48,470 Q300,400 552,470 L552,600 L48,600 Z" fill="#7FB69D" opacity=".35"/>
  <g transform="translate(140,170) scale(1.15)" fill="#5E5248">
    <circle cx="0" cy="0" r="36"/>
    <path d="M-26,-24 Q-52,-20 -46,14 Q-40,26 -30,16 Z"/>
    <path d="M26,-24 Q52,-20 46,14 Q40,26 30,16 Z"/>
    <ellipse cx="0" cy="66" rx="46" ry="38"/>
    <path d="M40,80 Q70,88 76,60 L66,54 Q60,74 36,68 Z"/>
  </g>
  <g transform="translate(30,40) scale(.92)">
    <g transform="rotate(-6 300 300)">
      <rect x="140" y="210" width="320" height="200" rx="22" fill="#7FB69D"/>
      <circle cx="168" cy="240" r="11" fill="#E8734A"/><circle cx="201" cy="240" r="11" fill="#F9B384"/><circle cx="234" cy="240" r="11" fill="#F5E6D3"/><circle cx="267" cy="240" r="11" fill="#EEF7F2"/><circle cx="300" cy="240" r="11" fill="#E8734A"/><circle cx="333" cy="240" r="11" fill="#F9B384"/><circle cx="366" cy="240" r="11" fill="#F5E6D3"/><circle cx="399" cy="240" r="11" fill="#EEF7F2"/><circle cx="432" cy="240" r="11" fill="#E8734A"/><circle cx="168" cy="269" r="11" fill="#F9B384"/><circle cx="201" cy="269" r="11" fill="#F5E6D3"/><circle cx="234" cy="269" r="11" fill="#EEF7F2"/><circle cx="267" cy="269" r="11" fill="#E8734A"/><circle cx="300" cy="269" r="11" fill="#F9B384"/><circle cx="333" cy="269" r="11" fill="#F5E6D3"/><circle cx="366" cy="269" r="11" fill="#EEF7F2"/><circle cx="399" cy="269" r="11" fill="#E8734A"/><circle cx="432" cy="269" r="11" fill="#F9B384"/><circle cx="168" cy="298" r="11" fill="#F5E6D3"/><circle cx="201" cy="298" r="11" fill="#EEF7F2"/><circle cx="234" cy="298" r="11" fill="#E8734A"/><circle cx="267" cy="298" r="11" fill="#F9B384"/><circle cx="300" cy="298" r="11" fill="#F5E6D3"/><circle cx="333" cy="298" r="11" fill="#EEF7F2"/><circle cx="366" cy="298" r="11" fill="#E8734A"/><circle cx="399" cy="298" r="11" fill="#F9B384"/><circle cx="432" cy="298" r="11" fill="#F5E6D3"/><circle cx="168" cy="327" r="11" fill="#EEF7F2"/><circle cx="201" cy="327" r="11" fill="#E8734A"/><circle cx="234" cy="327" r="11" fill="#F9B384"/><circle cx="267" cy="327" r="11" fill="#F5E6D3"/><circle cx="300" cy="327" r="11" fill="#EEF7F2"/><circle cx="333" cy="327" r="11" fill="#E8734A"/><circle cx="366" cy="327" r="11" fill="#F9B384"/><circle cx="399" cy="327" r="11" fill="#F5E6D3"/><circle cx="432" cy="327" r="11" fill="#EEF7F2"/><circle cx="168" cy="356" r="11" fill="#E8734A"/><circle cx="201" cy="356" r="11" fill="#F9B384"/><circle cx="234" cy="356" r="11" fill="#F5E6D3"/><circle cx="267" cy="356" r="11" fill="#EEF7F2"/><circle cx="300" cy="356" r="11" fill="#E8734A"/><circle cx="333" cy="356" r="11" fill="#F9B384"/><circle cx="366" cy="356" r="11" fill="#F5E6D3"/><circle cx="399" cy="356" r="11" fill="#EEF7F2"/><circle cx="432" cy="356" r="11" fill="#E8734A"/><circle cx="168" cy="385" r="11" fill="#F9B384"/><circle cx="201" cy="385" r="11" fill="#F5E6D3"/><circle cx="234" cy="385" r="11" fill="#EEF7F2"/><circle cx="267" cy="385" r="11" fill="#E8734A"/><circle cx="300" cy="385" r="11" fill="#F9B384"/><circle cx="333" cy="385" r="11" fill="#F5E6D3"/><circle cx="366" cy="385" r="11" fill="#EEF7F2"/><circle cx="399" cy="385" r="11" fill="#E8734A"/><circle cx="432" cy="385" r="11" fill="#F9B384"/>
      <circle cx="430" cy="250" r="8" fill="#3D3129"/>
    </g></g>
  <g transform="translate(500,120) rotate(20) scale(0.9)" fill="#7FB69D">
    <ellipse cx="0" cy="8" rx="14" ry="12"/>
    <circle cx="-14" cy="-8" r="6"/><circle cx="-5" cy="-13" r="6"/>
    <circle cx="5" cy="-13" r="6"/><circle cx="14" cy="-8" r="6"/>
  </g>
</svg>