<svg xmlns="http://www.w3.org/2000/svg" viewBox="0 0 600 600">
<rect width="600" height="600" fill="#FFFFFF"/>

  <clipPath id="zoom"><circle cx="300" cy="270" r="200"/></clipPath>
  <circle cx="300" cy="270" r="200" fill="#FDF1EA"/>
  <g clip-path="url(#zoom)"><g transform="translate(-90,-120) scale(1.35)">
    <g transform="rotate(-6 300 300)">
      <rect x="140" y="210" width="320" height="200" rx="22" fill="#7FB69D"/>
      <circle cx="168" cy="240" r="11" fill="#E8734A"/><circle cx="201" cy="240" r="11" fill="#F9B384"/><circle cx="234" cy="240" r="11" fill="#F5E6D3"/><circle cx="267" cy="240" r="11" fill="#EEF7F2"/><circle cx="300" cy="240" r="11" fill="#E8734A"/><circle cx="333" cy="240" r="11" fill="#F9B384"/><circle cx="366" cy="240" r="11" fill="#F5E6D3"/><circle cx="399" cy="240" r="11" fill="#EEF7F2"/><circle cx="432" cy="240" r="11" fill="#E8734A"/><circle cx="168" cy="269" r="11" fill="#F9B384"/><circle cx="201" cy="269" r="11" fill="#F5E6D3"/><circle cx="234" cy="269" r="11" fill="#EEF7F2"/><circle cx="267" cy="269" r="11" fill="#E8734A"/><circle cx="300" cy="269" r="11" fill="#F9B384"/><circle cx="333" cy="269" r="11" fill="#F5E6D3"/><circle cx="366" cy="269" r="11" fill="#EEF7F2"/><circle cx="399" cy="269" r="11" fill="#E8734A"/><circle cx="432" cy="269" r="11" fill="#F9B384"/><circle cx="168" cy="298" r="11" fill="#F5E6D3"/><circle cx="201" cy="298" r="11" fill="#EEF7F2"/><circle cx="234" cy="298" r="11" fill="#E8734A"/><circle cx="267" cy="298" r="11" fill="#F9B384"/><circle cx="300" cy="298" r="11" fill="#F5E6D3"/><circle cx="333" cy="298" r="11" fill="#EEF7F2"/><circle cx="366" cy="298" r="11" fill="#E8734A"/><circle cx="399" cy="298" r="11" fill="#F9B384"/><circle cx="432" cy="298" r="11" fill="#F5E6D3"/><circle cx="168" cy="327" r="11" fill="#EEF7F2"/><circle cx="201" cy="327" r="11" fill="#E8734A"/><circle cx="234" cy="327" r="11" fill="#F9B384"/><circle cx="267" cy="327" r="11" fill="#F5E6D3"/><circle cx="300" cy="327" r="11" fill="#EEF7F2"/><circle cx="333" cy="327" r="11" fill="#E8734A"/><circle cx="366" cy="327" r="11" fill="#F9B384"/><circle cx="399" cy="327" r="11" fill="#F5E6D3"/><circle cx="432" cy="327" r="11" fill="#EEF7F2"/><circle cx="168" cy="356" r="11" fill="#E8734A"/><circle cx="201" cy="356" r="11" fill="#F9B384"/><circle cx="234" cy="356" r="11" fill="#F5E6D3"/><circle cx="267" cy="356" r="11" fill="#EEF7F2"/><circle cx="300" cy="356" r="11" fill="#E8734A"/><circle cx="333" cy="356" r="11" fill="#F9B384"/><circle cx="366" cy="356" r="11" fill="#F5E6D3"/><circle cx="399" cy="356" r="11" fill="#EEF7F2"/><circle cx="432" cy="356" r="11" fill="#E8734A"/><circle cx="168" cy="385" r="11" fill="#F9B384"/><circle cx="201" cy="385" r="11" fill="#F5E6D3"/><circle cx="234" cy="385" r="11" fill="#EEF7F2"/><circle cx="267" cy="385" r="11" fill="#E8734A"/><circle cx="300" cy="385" r="11" fill="#F9B384"/><circle cx="333" cy="385" r="11" fill="#F5E6D3"/><circle cx="366" cy="385" r="11" fill="#EEF7F2"/><circle cx="399" cy="385" r="11" fill="#E8734A"/><circle cx="432" cy="385" r="11" fill="#F9B384"/>
      <circle cx="430" cy="250" r="8" fill="#3D3129"/>
    </g></g></g>
  <circle cx="300" cy="270" r="200" fill="none" stroke="#E8734A" stroke-width="7"/>
  <rect x="120" y="500" width="360" height="66" rx="18" fill="#EEF7F2"/>
  <text x="300" y="528" text-anchor="middle" font-family="Arial" font-size="20" font-weight="bold" fill="#3D3129">Polar fleece</text>
  <text x="300" y="552" text-anchor="middle" font-family="Arial" font-size="16" fill="#8C7D6F">Machine washable</text>
</svg>