<svg xmlns="http://www.w3.org/2000/svg" viewBox="0 0 600 600">
<rect width="600" height="600" fill="#FFFFFF"/>

  <circle cx="300" cy="300" r="252" fill="#EEF7F2"/>
  <path d="M48,470 Q300,400 552,470 L552,600 L48,600 Z" fill="#7FB69D" opacity=".35"/>
  <g transform="translate(140,170) scale(1.15)" fill="#5E5248">
    <circle cx="0" cy="0" r="36"/>
    <path d="M-26,-24 Q-52,-20 -46,14 Q-40,26 -30,16 Z"/>
    <path d="M26,-24 Q52,-20 46,14 Q40,26 30,16 Z"/>
    <ellipse cx="0" cy="66" rx="46" ry="38"/>
    <path d="M40,80 Q70,88 76,60 L66,54 Q60,74 36,68 Z"/>
  </g>
  <g transform="translate(30,40) scale(.92)">
    <g>
      <path d="M300,170 Q420,200 430,300 Q434,380 300,400 Q166,380 170,300 Q180,200 300,170 Z" fill="#E8734A"/>
      <path d="M300,190 Q404,216 412,300 Q414,366 300,382 Q186,366 188,300 Q196,216 300,190 Z" fill="#F9B384"/>
      <ellipse cx="300" cy="292" rx="66" ry="80" fill="#FDF1EA"/>
      <rect x="278" y="150" width="44" height="34" rx="8" fill="#3D3129"/>
      <circle cx="300" cy="208" r="16" fill="#B8AFA3"/>
      <circle cx="300" cy="208" r="8" fill="#FFFFFF"/>
      <path d="M186,296 L414,296" stroke="#7FB69D" stroke-width="14" stroke-linecap="round"/>
      <path d="M196,320 L404,320" stroke="#FFFFFF" stroke-width="5" stroke-dasharray="14 10" stroke-linecap="round"/>
      <rect x="228" y="336" width="40" height="26" rx="10" fill="#3D3129"/>
      <rect x="332" y="336" width="40" height="26" rx="10" fill="#3D3129"/>
    </g></g>
  <g transform="translate(500,120) rotate(20) scale(0.9)" fill="#7FB69D">
    <ellipse cx="0" cy="8" rx="14" ry="12"/>
    <circle cx="-14" cy="-8" r="6"/><circle cx="-5" cy="-13" r="6"/>
    <circle cx="5" cy="-13" r="6"/><circle cx="14" cy="-8" r="6"/>
  </g>
</svg>