<svg xmlns="http://www.w3.org/2000/svg" viewBox="0 0 600 600">
<rect width="600" height="600" fill="#FFFFFF"/>

  <clipPath id="zoom"><circle cx="300" cy="270" r="200"/></clipPath>
  <circle cx="300" cy="270" r="200" fill="#FDF1EA"/>
  <g clip-path="url(#zoom)"><g transform="translate(-90,-120) scale(1.35)">
    <g>
      <path d="M140,330 L240,270 L240,390 L140,450 Z" fill="#F9B384"/>
      <ellipse cx="140" cy="390" rx="34" ry="62" fill="#3D3129" opacity=".85"/>
      <ellipse cx="140" cy="390" rx="34" ry="62" fill="none" stroke="#E8734A" stroke-width="9"/>
      <path d="M460,330 L360,270 L360,390 L460,450 Z" fill="#7FB69D"/>
      <ellipse cx="460" cy="390" rx="34" ry="62" fill="#3D3129" opacity=".85"/>
      <ellipse cx="460" cy="390" rx="34" ry="62" fill="none" stroke="#7FB69D" stroke-width="9"/>
      <path d="M240,270 L300,180 L360,270 L360,390 L300,440 L240,390 Z" fill="#E8734A"/>
      <ellipse cx="300" cy="205" rx="52" ry="40" fill="#3D3129" opacity=".85"/>
      <ellipse cx="300" cy="205" rx="52" ry="40" fill="none" stroke="#F9B384" stroke-width="9"/>
      <circle cx="300" cy="330" r="17" fill="#F5E6D3"/>
      <line x1="240" y1="300" x2="240" y2="380" stroke="#3D3129" stroke-width="3" opacity=".2"/>
      <line x1="360" y1="300" x2="360" y2="380" stroke="#3D3129" stroke-width="3" opacity=".2"/>
    </g></g></g>
  <circle cx="300" cy="270" r="200" fill="none" stroke="#E8734A" stroke-width="7"/>
  <rect x="120" y="500" width="360" height="66" rx="18" fill="#EEF7F2"/>
  <text x="300" y="528" text-anchor="middle" font-family="Arial" font-size="20" font-weight="bold" fill="#3D3129">Crinkle lining</text>
  <text x="300" y="552" text-anchor="middle" font-family="Arial" font-size="16" fill="#8C7D6F">Spring-steel frame</text>
</svg>