<svg xmlns="http://www.w3.org/2000/svg" viewBox="0 0 600 600">
<rect width="600" height="600" fill="#FFFFFF"/>

  <circle cx="300" cy="300" r="252" fill="#EEF7F2"/>
  <path d="M48,470 Q300,400 552,470 L552,600 L48,600 Z" fill="#7FB69D" opacity=".35"/>
  <g transform="translate(140,160) scale(1.15)" fill="#5E5248">
    <circle cx="0" cy="0" r="34"/>
    <path d="M-30,-18 L-38,-48 L-10,-30 Z"/><path d="M30,-18 L38,-48 L10,-30 Z"/>
    <ellipse cx="0" cy="60" rx="42" ry="34"/>
    <path d="M38,72 Q78,66 74,30 Q72,20 64,22 Q68,54 34,58 Z"/>
  </g>
  <g transform="translate(30,40) scale(.92)">
    <g>
      <path d="M140,330 L240,270 L240,390 L140,450 Z" fill="#F9B384"/>
      <ellipse cx="140" cy="390" rx="34" ry="62" fill="#3D3129" opacity=".85"/>
      <ellipse cx="140" cy="390" rx="34" ry="62" fill="none" stroke="#E8734A" stroke-width="9"/>
      <path d="M460,330 L360,270 L360,390 L460,450 Z" fill="#7FB69D"/>
      <ellipse cx="460" cy="390" rx="34" ry="62" fill="#3D3129" opacity=".85"/>
      <ellipse cx="460" cy="390" rx="34" ry="62" fill="none" stroke="#7FB69D" stroke-width="9"/>
      <path d="M240,270 L300,180 L360,270 L360,390 L300,440 L240,390 Z" fill="#E8734A"/>
      <ellipse cx="300" cy="205" rx="52" ry="40" fill="#3D3129" opacity=".85"/>
      <ellipse cx="300" cy="205" rx="52" ry="40" fill="none" stroke="#F9B384" stroke-width="9"/>
      <circle cx="300" cy="330" r="17" fill="#F5E6D3"/>
      <line x1="240" y1="300" x2="240" y2="380" stroke="#3D3129" stroke-width="3" opacity=".2"/>
      <line x1="360" y1="300" x2="360" y2="380" stroke="#3D3129" stroke-width="3" opacity=".2"/>
    </g></g>
  <g transform="translate(500,120) rotate(20) scale(0.9)" fill="#7FB69D">
    <ellipse cx="0" cy="8" rx="14" ry="12"/>
    <circle cx="-14" cy="-8" r="6"/><circle cx="-5" cy="-13" r="6"/>
    <circle cx="5" cy="-13" r="6"/><circle cx="14" cy="-8" r="6"/>
  </g>
</svg>