<svg xmlns="http://www.w3.org/2000/svg" viewBox="0 0 600 600">
<rect width="600" height="600" fill="#FDF1EA"/>

  <circle cx="300" cy="310" r="215" fill="#FFFFFF" opacity=".55"/>
  
    <g>
      <g transform="translate(220,300)">
        <ellipse cx="0" cy="66" rx="104" ry="26" fill="#D8CFC2" opacity=".5"/>
        <path d="M-96,-10 L96,-10 L74,58 L-74,58 Z" fill="#E8734A"/>
        <path d="M-78,8 L78,8 L64,58 L-64,58 Z" fill="#F9B384" opacity=".55"/>
        <ellipse cx="0" cy="-10" rx="96" ry="30" fill="#F9B384"/>
        <ellipse cx="0" cy="-10" rx="72" ry="20" fill="#B3502C"/>
      </g>
      <g transform="translate(415,330)">
        <ellipse cx="0" cy="34" rx="72" ry="18" fill="#D8CFC2" opacity=".5"/>
        <path d="M-66,-6 L66,-6 L58,28 L-58,28 Z" fill="#7FB69D"/>
        <ellipse cx="0" cy="-6" rx="66" ry="20" fill="#A8CCBB"/>
        <ellipse cx="0" cy="-6" rx="46" ry="13" fill="#578A72"/>
      </g>
      <path d="M330,196 q22,-30 44,0 q10,16 -6,24 l-30,0 q-18,-8 -8,-24 Z" fill="none" stroke="#B8AFA3" stroke-width="9"/>
    </g>
  <g transform="translate(80,90) rotate(-18) scale(0.8)" fill="#FFFFFF">
    <ellipse cx="0" cy="8" rx="14" ry="12"/>
    <circle cx="-14" cy="-8" r="6"/><circle cx="-5" cy="-13" r="6"/>
    <circle cx="5" cy="-13" r="6"/><circle cx="14" cy="-8" r="6"/>
  </g><g transform="translate(520,510) rotate(24) scale(0.7)" fill="#FFFFFF">
    <ellipse cx="0" cy="8" rx="14" ry="12"/>
    <circle cx="-14" cy="-8" r="6"/><circle cx="-5" cy="-13" r="6"/>
    <circle cx="5" cy="-13" r="6"/><circle cx="14" cy="-8" r="6"/>
  </g>
</svg>