<svg xmlns="http://www.w3.org/2000/svg" viewBox="0 0 600 600">
<rect width="600" height="600" fill="#FDF1EA"/>

  <circle cx="300" cy="310" r="215" fill="#FFFFFF" opacity=".55"/>
  
    <g>
      <path d="M300,170 Q420,200 430,300 Q434,380 300,400 Q166,380 170,300 Q180,200 300,170 Z" fill="#E8734A"/>
      <path d="M300,190 Q404,216 412,300 Q414,366 300,382 Q186,366 188,300 Q196,216 300,190 Z" fill="#F9B384"/>
      <ellipse cx="300" cy="292" rx="66" ry="80" fill="#FDF1EA"/>
      <rect x="278" y="150" width="44" height="34" rx="8" fill="#3D3129"/>
      <circle cx="300" cy="208" r="16" fill="#B8AFA3"/>
      <circle cx="300" cy="208" r="8" fill="#FFFFFF"/>
      <path d="M186,296 L414,296" stroke="#7FB69D" stroke-width="14" stroke-linecap="round"/>
      <path d="M196,320 L404,320" stroke="#FFFFFF" stroke-width="5" stroke-dasharray="14 10" stroke-linecap="round"/>
      <rect x="228" y="336" width="40" height="26" rx="10" fill="#3D3129"/>
      <rect x="332" y="336" width="40" height="26" rx="10" fill="#3D3129"/>
    </g>
  <g transform="translate(80,90) rotate(-18) scale(0.8)" fill="#FFFFFF">
    <ellipse cx="0" cy="8" rx="14" ry="12"/>
    <circle cx="-14" cy="-8" r="6"/><circle cx="-5" cy="-13" r="6"/>
    <circle cx="5" cy="-13" r="6"/><circle cx="14" cy="-8" r="6"/>
  </g><g transform="translate(520,510) rotate(24) scale(0.7)" fill="#FFFFFF">
    <ellipse cx="0" cy="8" rx="14" ry="12"/>
    <circle cx="-14" cy="-8" r="6"/><circle cx="-5" cy="-13" r="6"/>
    <circle cx="5" cy="-13" r="6"/><circle cx="14" cy="-8" r="6"/>
  </g>
</svg>