<svg xmlns="http://www.w3.org/2000/svg" viewBox="0 0 600 600">
<rect width="600" height="600" fill="#FFFFFF"/>

  <circle cx="300" cy="300" r="252" fill="#EEF7F2"/>
  <path d="M48,470 Q300,400 552,470 L552,600 L48,600 Z" fill="#7FB69D" opacity=".35"/>
  <g transform="translate(140,160) scale(1.15)" fill="#5E5248">
    <circle cx="0" cy="0" r="34"/>
    <path d="M-30,-18 L-38,-48 L-10,-30 Z"/><path d="M30,-18 L38,-48 L10,-30 Z"/>
    <ellipse cx="0" cy="60" rx="42" ry="34"/>
    <path d="M38,72 Q78,66 74,30 Q72,20 64,22 Q68,54 34,58 Z"/>
  </g>
  <g transform="translate(30,40) scale(.92)">
    <g transform="rotate(-18 300 300)">
      <rect x="180" y="200" width="150" height="180" rx="34" fill="#E8734A"/>
      <rect x="196" y="216" width="118" height="148" rx="24" fill="#F9B384"/>
      <rect x="212" y="232" width="86" height="116" rx="16" fill="#FDF1EA"/>
      <rect x="330" y="266" width="140" height="48" rx="24" fill="#3D3129"/>
      <rect x="440" y="272" width="36" height="36" rx="18" fill="#8C7D6F"/>
      <path d="M226,250 q30,-14 58,0" stroke="#B8AFA3" stroke-width="5" fill="none" stroke-linecap="round"/>
      <path d="M226,290 q30,-14 58,0" stroke="#B8AFA3" stroke-width="5" fill="none" stroke-linecap="round"/>
      <path d="M226,330 q30,-14 58,0" stroke="#B8AFA3" stroke-width="5" fill="none" stroke-linecap="round"/>
    </g></g>
  <g transform="translate(500,120) rotate(20) scale(0.9)" fill="#7FB69D">
    <ellipse cx="0" cy="8" rx="14" ry="12"/>
    <circle cx="-14" cy="-8" r="6"/><circle cx="-5" cy="-13" r="6"/>
    <circle cx="5" cy="-13" r="6"/><circle cx="14" cy="-8" r="6"/>
  </g>
</svg>