<svg xmlns="http://www.w3.org/2000/svg" viewBox="0 0 600 600">
<rect width="600" height="600" fill="#FFFFFF"/>

  <clipPath id="zoom"><circle cx="300" cy="270" r="200"/></clipPath>
  <circle cx="300" cy="270" r="200" fill="#FDF1EA"/>
  <g clip-path="url(#zoom)"><g transform="translate(-90,-120) scale(1.35)">
    <g>
      <g transform="translate(220,300)">
        <ellipse cx="0" cy="66" rx="104" ry="26" fill="#D8CFC2" opacity=".5"/>
        <path d="M-96,-10 L96,-10 L74,58 L-74,58 Z" fill="#E8734A"/>
        <path d="M-78,8 L78,8 L64,58 L-64,58 Z" fill="#F9B384" opacity=".55"/>
        <ellipse cx="0" cy="-10" rx="96" ry="30" fill="#F9B384"/>
        <ellipse cx="0" cy="-10" rx="72" ry="20" fill="#B3502C"/>
      </g>
      <g transform="translate(415,330)">
        <ellipse cx="0" cy="34" rx="72" ry="18" fill="#D8CFC2" opacity=".5"/>
        <path d="M-66,-6 L66,-6 L58,28 L-58,28 Z" fill="#7FB69D"/>
        <ellipse cx="0" cy="-6" rx="66" ry="20" fill="#A8CCBB"/>
        <ellipse cx="0" cy="-6" rx="46" ry="13" fill="#578A72"/>
      </g>
      <path d="M330,196 q22,-30 44,0 q10,16 -6,24 l-30,0 q-18,-8 -8,-24 Z" fill="none" stroke="#B8AFA3" stroke-width="9"/>
    </g></g></g>
  <circle cx="300" cy="270" r="200" fill="none" stroke="#E8734A" stroke-width="7"/>
  <rect x="120" y="500" width="360" height="66" rx="18" fill="#EEF7F2"/>
  <text x="300" y="528" text-anchor="middle" font-family="Arial" font-size="20" font-weight="bold" fill="#3D3129">Food-grade silicone</text>
  <text x="300" y="552" text-anchor="middle" font-family="Arial" font-size="16" fill="#8C7D6F">Dishwasher safe</text>
</svg>