<svg xmlns="http://www.w3.org/2000/svg" viewBox="0 0 600 600">
<rect width="600" height="600" fill="#FFFFFF"/>

  <g opacity=".92">
    <g>
      <g transform="translate(220,300)">
        <ellipse cx="0" cy="66" rx="104" ry="26" fill="#D8CFC2" opacity=".5"/>
        <path d="M-96,-10 L96,-10 L74,58 L-74,58 Z" fill="#E8734A"/>
        <path d="M-78,8 L78,8 L64,58 L-64,58 Z" fill="#F9B384" opacity=".55"/>
        <ellipse cx="0" cy="-10" rx="96" ry="30" fill="#F9B384"/>
        <ellipse cx="0" cy="-10" rx="72" ry="20" fill="#B3502C"/>
      </g>
      <g transform="translate(415,330)">
        <ellipse cx="0" cy="34" rx="72" ry="18" fill="#D8CFC2" opacity=".5"/>
        <path d="M-66,-6 L66,-6 L58,28 L-58,28 Z" fill="#7FB69D"/>
        <ellipse cx="0" cy="-6" rx="66" ry="20" fill="#A8CCBB"/>
        <ellipse cx="0" cy="-6" rx="46" ry="13" fill="#578A72"/>
      </g>
      <path d="M330,196 q22,-30 44,0 q10,16 -6,24 l-30,0 q-18,-8 -8,-24 Z" fill="none" stroke="#B8AFA3" stroke-width="9"/>
    </g></g>
  <line x1="110" y1="520" x2="490" y2="520" stroke="#3D3129" stroke-width="3"/>
  <line x1="110" y1="508" x2="110" y2="532" stroke="#3D3129" stroke-width="3"/>
  <line x1="490" y1="508" x2="490" y2="532" stroke="#3D3129" stroke-width="3"/>
  <rect x="180" y="494" width="240" height="52" rx="26" fill="#3D3129"/>
  <text x="300" y="521" text-anchor="middle" font-family="Arial" font-size="21" font-weight="bold" fill="#FFFFFF">350 ml / 12 oz</text>
  <text x="300" y="76" text-anchor="middle" font-family="Arial" font-size="19" fill="#8C7D6F">collapses to 2.5 cm</text>
</svg>