<svg xmlns="http://www.w3.org/2000/svg" viewBox="0 0 600 600">
<rect width="600" height="600" fill="#FFFFFF"/>

  <clipPath id="zoom"><circle cx="300" cy="270" r="200"/></clipPath>
  <circle cx="300" cy="270" r="200" fill="#FDF1EA"/>
  <g clip-path="url(#zoom)"><g transform="translate(-90,-120) scale(1.35)">
    <g transform="rotate(14 300 300)">
      <rect x="270" y="290" width="60" height="150" rx="28" fill="#7FB69D"/>
      <rect x="282" y="302" width="36" height="90" rx="18" fill="#EEF7F2"/>
      <path d="M190,220 Q300,160 410,220 L410,270 Q300,230 190,270 Z" fill="#E8734A"/>
      <rect x="205" y="248" width="6" height="46" rx="3" fill="#B8AFA3"/><rect x="224" y="241.20162612375117" width="6" height="46" rx="3" fill="#B8AFA3"/><rect x="243" y="235.0687244495656" width="6" height="46" rx="3" fill="#B8AFA3"/><rect x="262" y="230.20162612375117" width="6" height="46" rx="3" fill="#B8AFA3"/><rect x="281" y="227.07675664150662" width="6" height="46" rx="3" fill="#B8AFA3"/><rect x="300" y="226" width="6" height="46" rx="3" fill="#B8AFA3"/><rect x="319" y="227.07675664150662" width="6" height="46" rx="3" fill="#B8AFA3"/><rect x="338" y="230.20162612375117" width="6" height="46" rx="3" fill="#B8AFA3"/><rect x="357" y="235.0687244495656" width="6" height="46" rx="3" fill="#B8AFA3"/><rect x="376" y="241.20162612375117" width="6" height="46" rx="3" fill="#B8AFA3"/><rect x="395" y="248" width="6" height="46" rx="3" fill="#B8AFA3"/>
      <circle cx="300" cy="330" r="12" fill="#E8734A"/>
    </g></g></g>
  <circle cx="300" cy="270" r="200" fill="none" stroke="#E8734A" stroke-width="7"/>
  <rect x="120" y="500" width="360" height="66" rx="18" fill="#EEF7F2"/>
  <text x="300" y="528" text-anchor="middle" font-family="Arial" font-size="20" font-weight="bold" fill="#3D3129">Rounded steel pins</text>
  <text x="300" y="552" text-anchor="middle" font-family="Arial" font-size="16" fill="#8C7D6F">One-click fur release</text>
</svg>