<svg xmlns="http://www.w3.org/2000/svg" viewBox="0 0 600 600">
<rect width="600" height="600" fill="#FFFFFF"/>

  <g opacity=".92">
    <g transform="rotate(-24 300 300)">
      <rect x="285" y="180" width="14" height="240" rx="7" fill="#C89B6D"/>
      <rect x="285" y="180" width="14" height="50" rx="7" fill="#B0834F"/>
    </g>
    <path d="M240,215 Q160,170 150,260 Q148,300 185,320" stroke="#8C7D6F" stroke-width="4" fill="none" stroke-linecap="round"/>
    <g transform="translate(185,330)">
      <path d="M0,0 Q-38,44 -8,96 Q6,60 6,30 Z" fill="#E8734A"/>
      <path d="M4,4 Q40,50 12,100 Q0,62 -2,32 Z" fill="#F9B384"/>
      <path d="M0,8 Q-4,70 2,104 Q8,66 4,28 Z" fill="#7FB69D"/>
      <circle cx="2" cy="2" r="9" fill="#3D3129"/>
    </g></g>
  <line x1="110" y1="520" x2="490" y2="520" stroke="#3D3129" stroke-width="3"/>
  <line x1="110" y1="508" x2="110" y2="532" stroke="#3D3129" stroke-width="3"/>
  <line x1="490" y1="508" x2="490" y2="532" stroke="#3D3129" stroke-width="3"/>
  <rect x="180" y="494" width="240" height="52" rx="26" fill="#3D3129"/>
  <text x="300" y="521" text-anchor="middle" font-family="Arial" font-size="21" font-weight="bold" fill="#FFFFFF">30 cm / 11.8 in</text>
  <text x="300" y="76" text-anchor="middle" font-family="Arial" font-size="19" fill="#8C7D6F">wand length</text>
</svg>